# xmcd
#
# Track frame offsets: 
#        150
#        17267
#        35467
#        52557
#
# Disc length: 941 seconds
#
# Revision: 5
# Processed by: cddbd v1.5.2PL0 Copyright (c) Steve Scherf et al.
# Submitted via: ExactAudioCopyFreeDBPlugin 1.0
#
DISCID=1b03ab04
DTITLE=ZARD - 負けないで
DYEAR=2006
DGENRE=JPop
TTITLE0=負けないで
TTITLE1=Stray Love
TTITLE2=負けないで (オリジナル・カラオケ)
TTITLE3=Stray Love (オリジナル・カラオケ)
EXTD=YEAR: 2006
EXTT0=
EXTT1=
EXTT2=
EXTT3=
PLAYORDER=
